<mxfile host="app.diagrams.net" modified="2023-07-31T14:50:39.573Z" agent="Mozilla/5.0 (X11; Linux x86_64) AppleWebKit/537.36 (KHTML, like Gecko) Chrome/114.0.0.0 Safari/537.36" version="21.6.6" etag="-rkbRQAi5xG-dP67OY5b" type="github">
  <diagram name="Page-1" id="qV_7DRV_l-cJgV2CaBIx">
    <mxGraphModel>
      <root>
        <mxCell id="0" />
        <mxCell id="1" parent="0" />
      </root>
    </mxGraphModel>
  </diagram>
</mxfile>
